<svg version="1.1" viewBox="0.0 0.0 960.0 960.0" fill="none" stroke="none" stroke-linecap="square" stroke-miterlimit="10" xmlns:xlink="http://www.w3.org/1999/xlink" xmlns="http://www.w3.org/2000/svg"><clipPath id="p.0"><path d="m0 0l960.0 0l0 960.0l-960.0 0l0 -960.0z" clip-rule="nonzero"/></clipPath><g clip-path="url(#p.0)"><path fill="#ffffff" d="m0 0l960.0 0l0 960.0l-960.0 0z" fill-rule="evenodd"/><path fill="#ffffff" d="m27.454847 22.859594l151.62204 0l0 151.62206l-151.62204 0z" fill-rule="evenodd"/><path stroke="#000000" stroke-width="12.0" stroke-linejoin="round" stroke-linecap="butt" d="m27.454847 22.859594l151.62204 0l0 151.62206l-151.62204 0z" fill-rule="evenodd"/><path fill="#000000" d="m106.21971 112.01061l-5.875 0l-2.328125 -6.0625l-10.6875 0l-2.203125 6.0625l-5.71875 0l10.40625 -26.71875l5.703125 0l10.703125 26.71875zm-9.9375 -10.578125l-3.671875 -9.90625l-3.609375 9.90625l7.28125 0zm24.769684 10.578125l-5.125 0l0 -19.296875q-2.796875 2.625 -6.609375 3.875l0 -4.640625q2.0 -0.65625 4.34375 -2.484375q2.359375 -1.84375 3.234375 -4.28125l4.15625 0l0 26.828125z" fill-rule="nonzero"/><path fill="#ffffff" d="m179.06924 22.859594l151.62204 0l0 151.62206l-151.62204 0z" fill-rule="evenodd"/><path stroke="#000000" stroke-width="12.0" stroke-linejoin="round" stroke-linecap="butt" d="m179.06924 22.859594l151.62204 0l0 151.62206l-151.62204 0z" fill-rule="evenodd"/><path fill="#000000" d="m257.8341 112.01061l-5.875 0l-2.328125 -6.0625l-10.6875 0l-2.203125 6.0625l-5.71875 0l10.40625 -26.71875l5.703125 0l10.703125 26.71875zm-9.9375 -10.578125l-3.671875 -9.90625l-3.609375 9.90625l7.28125 0zm28.957184 5.828125l0 4.75l-17.953125 0q0.296875 -2.703125 1.75 -5.109375q1.46875 -2.421875 5.765625 -6.40625q3.46875 -3.234375 4.25 -4.375q1.0625 -1.59375 1.0625 -3.140625q0 -1.703125 -0.921875 -2.625q-0.921875 -0.921875 -2.546875 -0.921875q-1.609375 0 -2.5625 0.96875q-0.9375 0.953125 -1.078125 3.203125l-5.109375 -0.515625q0.453125 -4.21875 2.859375 -6.0625q2.40625 -1.84375 6.015625 -1.84375q3.953125 0 6.203125 2.140625q2.265625 2.125 2.265625 5.296875q0 1.796875 -0.640625 3.4375q-0.640625 1.625 -2.046875 3.40625q-0.9375 1.1875 -3.359375 3.421875q-2.421875 2.21875 -3.078125 2.953125q-0.640625 0.71875 -1.03125 1.421875l10.15625 0z" fill-rule="nonzero"/><path fill="#b7b7b7" d="m330.68365 22.859594l151.62204 0l0 151.62206l-151.62204 0z" fill-rule="evenodd"/><path stroke="#000000" stroke-width="12.0" stroke-linejoin="round" stroke-linecap="butt" d="m330.68365 22.859594l151.62204 0l0 151.62206l-151.62204 0z" fill-rule="evenodd"/><path fill="#000000" d="m409.44852 112.01061l-5.875 0l-2.328125 -6.0625l-10.6875 0l-2.203125 6.0625l-5.71875 0l10.40625 -26.71875l5.703125 0l10.703125 26.71875zm-9.9375 -10.578125l-3.671875 -9.90625l-3.609375 9.90625l7.28125 0zm11.488434 3.484375l4.953125 -0.59375q0.234375 1.890625 1.265625 2.890625q1.046875 1.0 2.53125 1.0q1.578125 0 2.65625 -1.203125q1.09375 -1.203125 1.09375 -3.234375q0 -1.9375 -1.046875 -3.0625q-1.03125 -1.140625 -2.53125 -1.140625q-0.984375 0 -2.34375 0.390625l0.5625 -4.171875q2.078125 0.046875 3.171875 -0.90625q1.09375 -0.953125 1.09375 -2.546875q0 -1.34375 -0.8125 -2.140625q-0.796875 -0.8125 -2.125 -0.8125q-1.3125 0 -2.25 0.921875q-0.921875 0.90625 -1.125 2.65625l-4.71875 -0.796875q0.5 -2.421875 1.484375 -3.875q1.0 -1.453125 2.765625 -2.28125q1.78125 -0.828125 4.0 -0.828125q3.765625 0 6.046875 2.40625q1.875 1.96875 1.875 4.453125q0 3.515625 -3.84375 5.609375q2.296875 0.484375 3.671875 2.203125q1.375 1.71875 1.375 4.140625q0 3.515625 -2.578125 6.0q-2.5625 2.46875 -6.390625 2.46875q-3.625 0 -6.015625 -2.078125q-2.390625 -2.09375 -2.765625 -5.46875z" fill-rule="nonzero"/><path fill="#b7b7b7" d="m482.29803 22.859594l151.62207 0l0 151.62206l-151.62207 0z" fill-rule="evenodd"/><path stroke="#000000" stroke-width="12.0" stroke-linejoin="round" stroke-linecap="butt" d="m482.29803 22.859594l151.62207 0l0 151.62206l-151.62207 0z" fill-rule="evenodd"/><path fill="#000000" d="m561.0629 112.01061l-5.875 0l-2.328125 -6.0625l-10.6875 0l-2.203125 6.0625l-5.71875 0l10.40625 -26.71875l5.703125 0l10.703125 26.71875zm-9.9375 -10.578125l-3.671875 -9.90625l-3.609375 9.90625l7.28125 0zm21.707153 10.578125l0 -5.375l-10.9375 0l0 -4.484375l11.59375 -16.96875l4.3125 0l0 16.953125l3.3125 0l0 4.5l-3.3125 0l0 5.375l-4.96875 0zm0 -9.875l0 -9.140625l-6.140625 9.140625l6.140625 0z" fill-rule="nonzero"/><path fill="#ffffff" d="m633.9124 22.859594l151.62207 0l0 151.62206l-151.62207 0z" fill-rule="evenodd"/><path stroke="#000000" stroke-width="12.0" stroke-linejoin="round" stroke-linecap="butt" d="m633.9124 22.859594l151.62207 0l0 151.62206l-151.62207 0z" fill-rule="evenodd"/><path fill="#000000" d="m712.6773 112.01061l-5.875 0l-2.328125 -6.0625l-10.6875 0l-2.203125 6.0625l-5.71875 0l10.40625 -26.71875l5.703125 0l10.703125 26.71875zm-9.9375 -10.578125l-3.671875 -9.90625l-3.609375 9.90625l7.28125 0zm11.738403 3.703125l5.109375 -0.53125q0.21875 1.734375 1.28125 2.75q1.078125 1.015625 2.484375 1.015625q1.609375 0 2.71875 -1.296875q1.109375 -1.3125 1.109375 -3.9375q0 -2.46875 -1.109375 -3.6875q-1.09375 -1.234375 -2.859375 -1.234375q-2.203125 0 -3.953125 1.953125l-4.15625 -0.609375l2.625 -13.90625l13.546875 0l0 4.796875l-9.671875 0l-0.796875 4.53125q1.71875 -0.84375 3.5 -0.84375q3.40625 0 5.765625 2.484375q2.375 2.46875 2.375 6.421875q0 3.296875 -1.90625 5.890625q-2.609375 3.53125 -7.234375 3.53125q-3.703125 0 -6.046875 -1.984375q-2.328125 -1.984375 -2.78125 -5.34375z" fill-rule="nonzero"/><path fill="#ffffff" d="m785.52686 22.859594l151.62201 0l0 151.62206l-151.62201 0z" fill-rule="evenodd"/><path stroke="#000000" stroke-width="12.0" stroke-linejoin="round" stroke-linecap="butt" d="m785.52686 22.859594l151.62201 0l0 151.62206l-151.62201 0z" fill-rule="evenodd"/><path fill="#000000" d="m864.2917 112.01061l-5.875 0l-2.328125 -6.0625l-10.6875 0l-2.203125 6.0625l-5.71875 0l10.40625 -26.71875l5.703125 0l10.703125 26.71875zm-9.9375 -10.578125l-3.671875 -9.90625l-3.609375 9.90625l7.28125 0zm29.019714 -9.59375l-4.953125 0.546875q-0.1875 -1.53125 -0.953125 -2.265625q-0.765625 -0.734375 -1.984375 -0.734375q-1.625 0 -2.75 1.46875q-1.109375 1.453125 -1.40625 6.0625q1.90625 -2.265625 4.75 -2.265625q3.21875 0 5.5 2.453125q2.28125 2.4375 2.28125 6.296875q0 4.109375 -2.40625 6.59375q-2.390625 2.46875 -6.171875 2.46875q-4.046875 0 -6.65625 -3.140625q-2.609375 -3.140625 -2.609375 -10.3125q0 -7.34375 2.71875 -10.578125q2.71875 -3.25 7.0625 -3.25q3.046875 0 5.03125 1.703125q2.0 1.703125 2.546875 4.953125zm-11.609375 11.171875q0 2.5 1.140625 3.859375q1.15625 1.34375 2.625 1.34375q1.421875 0 2.375 -1.109375q0.953125 -1.109375 0.953125 -3.640625q0 -2.609375 -1.03125 -3.8125q-1.015625 -1.21875 -2.546875 -1.21875q-1.46875 0 -2.5 1.15625q-1.015625 1.15625 -1.015625 3.421875z" fill-rule="nonzero"/><path fill="#b7b7b7" d="m27.454847 174.47398l151.62204 0l0 151.62206l-151.62204 0z" fill-rule="evenodd"/><path stroke="#000000" stroke-width="12.0" stroke-linejoin="round" stroke-linecap="butt" d="m27.454847 174.47398l151.62204 0l0 151.62206l-151.62204 0z" fill-rule="evenodd"/><path fill="#000000" d="m82.14159 236.90625l10.6875 0q3.171875 0 4.71875 0.265625q1.5625 0.265625 2.78125 1.109375q1.234375 0.828125 2.046875 2.234375q0.828125 1.390625 0.828125 3.109375q0 1.875 -1.015625 3.453125q-1.0 1.5625 -2.734375 2.34375q2.4375 0.71875 3.75 2.4375q1.3125 1.703125 1.3125 4.015625q0 1.828125 -0.84375 3.546875q-0.84375 1.71875 -2.3125 2.75q-1.46875 1.03125 -3.609375 1.265625q-1.359375 0.15625 -6.515625 0.1875l-9.09375 0l0 -26.71875zm5.390625 4.453125l0 6.171875l3.546875 0q3.140625 0 3.90625 -0.09375q1.390625 -0.15625 2.1875 -0.953125q0.796875 -0.796875 0.796875 -2.09375q0 -1.234375 -0.6875 -2.0q-0.6875 -0.78125 -2.03125 -0.953125q-0.8125 -0.078125 -4.609375 -0.078125l-3.109375 0zm0 10.625l0 7.140625l5.0 0q2.921875 0 3.703125 -0.171875q1.203125 -0.21875 1.953125 -1.0625q0.75 -0.84375 0.75 -2.265625q0 -1.203125 -0.578125 -2.03125q-0.578125 -0.84375 -1.6875 -1.21875q-1.09375 -0.390625 -4.78125 -0.390625l-4.359375 0zm33.519684 11.640625l-5.125 0l0 -19.296875q-2.796875 2.625 -6.609375 3.875l0 -4.640625q2.0 -0.65625 4.34375 -2.484375q2.359375 -1.84375 3.234375 -4.28125l4.15625 0l0 26.828125z" fill-rule="nonzero"/><path fill="#ffffff" d="m179.06924 174.47398l151.62204 0l0 151.62206l-151.62204 0z" fill-rule="evenodd"/><path stroke="#000000" stroke-width="12.0" stroke-linejoin="round" stroke-linecap="butt" d="m179.06924 174.47398l151.62204 0l0 151.62206l-151.62204 0z" fill-rule="evenodd"/><path fill="#000000" d="m233.75598 236.90625l10.6875 0q3.171875 0 4.71875 0.265625q1.5625 0.265625 2.78125 1.109375q1.234375 0.828125 2.046875 2.234375q0.828125 1.390625 0.828125 3.109375q0 1.875 -1.015625 3.453125q-1.0 1.5625 -2.734375 2.34375q2.4375 0.71875 3.75 2.4375q1.3125 1.703125 1.3125 4.015625q0 1.828125 -0.84375 3.546875q-0.84375 1.71875 -2.3125 2.75q-1.46875 1.03125 -3.609375 1.265625q-1.359375 0.15625 -6.515625 0.1875l-9.09375 0l0 -26.71875zm5.390625 4.453125l0 6.171875l3.546875 0q3.140625 0 3.90625 -0.09375q1.390625 -0.15625 2.1875 -0.953125q0.796875 -0.796875 0.796875 -2.09375q0 -1.234375 -0.6875 -2.0q-0.6875 -0.78125 -2.03125 -0.953125q-0.8125 -0.078125 -4.609375 -0.078125l-3.109375 0zm0 10.625l0 7.140625l5.0 0q2.921875 0 3.703125 -0.171875q1.203125 -0.21875 1.953125 -1.0625q0.75 -0.84375 0.75 -2.265625q0 -1.203125 -0.578125 -2.03125q-0.578125 -0.84375 -1.6875 -1.21875q-1.09375 -0.390625 -4.78125 -0.390625l-4.359375 0zm37.707184 6.890625l0 4.75l-17.953125 0q0.296875 -2.703125 1.75 -5.109375q1.46875 -2.421875 5.765625 -6.40625q3.46875 -3.234375 4.25 -4.375q1.0625 -1.59375 1.0625 -3.140625q0 -1.703125 -0.921875 -2.625q-0.921875 -0.921875 -2.546875 -0.921875q-1.609375 0 -2.5625 0.96875q-0.9375 0.953125 -1.078125 3.203125l-5.109375 -0.515625q0.453125 -4.21875 2.859375 -6.0625q2.40625 -1.84375 6.015625 -1.84375q3.953125 0 6.203125 2.140625q2.265625 2.125 2.265625 5.296875q0 1.796875 -0.640625 3.4375q-0.640625 1.625 -2.046875 3.40625q-0.9375 1.1875 -3.359375 3.421875q-2.421875 2.21875 -3.078125 2.953125q-0.640625 0.71875 -1.03125 1.421875l10.15625 0z" fill-rule="nonzero"/><path fill="#ffffff" d="m330.68365 174.47398l151.62204 0l0 151.62206l-151.62204 0z" fill-rule="evenodd"/><path stroke="#000000" stroke-width="12.0" stroke-linejoin="round" stroke-linecap="butt" d="m330.68365 174.47398l151.62204 0l0 151.62206l-151.62204 0z" fill-rule="evenodd"/><path fill="#000000" d="m385.3704 236.90625l10.6875 0q3.171875 0 4.71875 0.265625q1.5625 0.265625 2.78125 1.109375q1.234375 0.828125 2.046875 2.234375q0.828125 1.390625 0.828125 3.109375q0 1.875 -1.015625 3.453125q-1.0 1.5625 -2.734375 2.34375q2.4375 0.71875 3.75 2.4375q1.3125 1.703125 1.3125 4.015625q0 1.828125 -0.84375 3.546875q-0.84375 1.71875 -2.3125 2.75q-1.46875 1.03125 -3.609375 1.265625q-1.359375 0.15625 -6.515625 0.1875l-9.09375 0l0 -26.71875zm5.390625 4.453125l0 6.171875l3.546875 0q3.140625 0 3.90625 -0.09375q1.390625 -0.15625 2.1875 -0.953125q0.796875 -0.796875 0.796875 -2.09375q0 -1.234375 -0.6875 -2.0q-0.6875 -0.78125 -2.03125 -0.953125q-0.8125 -0.078125 -4.609375 -0.078125l-3.109375 0zm0 10.625l0 7.140625l5.0 0q2.921875 0 3.703125 -0.171875q1.203125 -0.21875 1.953125 -1.0625q0.75 -0.84375 0.75 -2.265625q0 -1.203125 -0.578125 -2.03125q-0.578125 -0.84375 -1.6875 -1.21875q-1.09375 -0.390625 -4.78125 -0.390625l-4.359375 0zm20.238434 4.546875l4.953125 -0.59375q0.234375 1.890625 1.265625 2.890625q1.046875 1.0 2.53125 1.0q1.578125 0 2.65625 -1.203125q1.09375 -1.203125 1.09375 -3.234375q0 -1.9375 -1.046875 -3.0625q-1.03125 -1.140625 -2.53125 -1.140625q-0.984375 0 -2.34375 0.390625l0.5625 -4.171875q2.078125 0.046875 3.171875 -0.90625q1.09375 -0.953125 1.09375 -2.546875q0 -1.34375 -0.8125 -2.140625q-0.796875 -0.8125 -2.125 -0.8125q-1.3125 0 -2.25 0.921875q-0.921875 0.90625 -1.125 2.65625l-4.71875 -0.796875q0.5 -2.421875 1.484375 -3.875q1.0 -1.453125 2.765625 -2.28125q1.78125 -0.828125 4.0 -0.828125q3.765625 0 6.046875 2.40625q1.875 1.96875 1.875 4.453125q0 3.515625 -3.84375 5.609375q2.296875 0.484375 3.671875 2.203125q1.375 1.71875 1.375 4.140625q0 3.515625 -2.578125 6.0q-2.5625 2.46875 -6.390625 2.46875q-3.625 0 -6.015625 -2.078125q-2.390625 -2.09375 -2.765625 -5.46875z" fill-rule="nonzero"/><path fill="#ffffff" d="m482.29803 174.47398l151.62207 0l0 151.62206l-151.62207 0z" fill-rule="evenodd"/><path stroke="#000000" stroke-width="12.0" stroke-linejoin="round" stroke-linecap="butt" d="m482.29803 174.47398l151.62207 0l0 151.62206l-151.62207 0z" fill-rule="evenodd"/><path fill="#000000" d="m536.9848 236.90625l10.6875 0q3.171875 0 4.71875 0.265625q1.5625 0.265625 2.78125 1.109375q1.234375 0.828125 2.046875 2.234375q0.828125 1.390625 0.828125 3.109375q0 1.875 -1.015625 3.453125q-1.0 1.5625 -2.734375 2.34375q2.4375 0.71875 3.75 2.4375q1.3125 1.703125 1.3125 4.015625q0 1.828125 -0.84375 3.546875q-0.84375 1.71875 -2.3125 2.75q-1.46875 1.03125 -3.609375 1.265625q-1.359375 0.15625 -6.515625 0.1875l-9.09375 0l0 -26.71875zm5.390625 4.453125l0 6.171875l3.546875 0q3.140625 0 3.90625 -0.09375q1.390625 -0.15625 2.1875 -0.953125q0.796875 -0.796875 0.796875 -2.09375q0 -1.234375 -0.6875 -2.0q-0.6875 -0.78125 -2.03125 -0.953125q-0.8125 -0.078125 -4.609375 -0.078125l-3.109375 0zm0 10.625l0 7.140625l5.0 0q2.921875 0 3.703125 -0.171875q1.203125 -0.21875 1.953125 -1.0625q0.75 -0.84375 0.75 -2.265625q0 -1.203125 -0.578125 -2.03125q-0.578125 -0.84375 -1.6875 -1.21875q-1.09375 -0.390625 -4.78125 -0.390625l-4.359375 0zm30.457153 11.640625l0 -5.375l-10.9375 0l0 -4.484375l11.59375 -16.96875l4.3125 0l0 16.953125l3.3125 0l0 4.5l-3.3125 0l0 5.375l-4.96875 0zm0 -9.875l0 -9.140625l-6.140625 9.140625l6.140625 0z" fill-rule="nonzero"/><path fill="#ffffff" d="m633.9124 174.47398l151.62207 0l0 151.62206l-151.62207 0z" fill-rule="evenodd"/><path stroke="#000000" stroke-width="12.0" stroke-linejoin="round" stroke-linecap="butt" d="m633.9124 174.47398l151.62207 0l0 151.62206l-151.62207 0z" fill-rule="evenodd"/><path fill="#000000" d="m688.5992 236.90625l10.6875 0q3.171875 0 4.71875 0.265625q1.5625 0.265625 2.78125 1.109375q1.234375 0.828125 2.046875 2.234375q0.828125 1.390625 0.828125 3.109375q0 1.875 -1.015625 3.453125q-1.0 1.5625 -2.734375 2.34375q2.4375 0.71875 3.75 2.4375q1.3125 1.703125 1.3125 4.015625q0 1.828125 -0.84375 3.546875q-0.84375 1.71875 -2.3125 2.75q-1.46875 1.03125 -3.609375 1.265625q-1.359375 0.15625 -6.515625 0.1875l-9.09375 0l0 -26.71875zm5.390625 4.453125l0 6.171875l3.546875 0q3.140625 0 3.90625 -0.09375q1.390625 -0.15625 2.1875 -0.953125q0.796875 -0.796875 0.796875 -2.09375q0 -1.234375 -0.6875 -2.0q-0.6875 -0.78125 -2.03125 -0.953125q-0.8125 -0.078125 -4.609375 -0.078125l-3.109375 0zm0 10.625l0 7.140625l5.0 0q2.921875 0 3.703125 -0.171875q1.203125 -0.21875 1.953125 -1.0625q0.75 -0.84375 0.75 -2.265625q0 -1.203125 -0.578125 -2.03125q-0.578125 -0.84375 -1.6875 -1.21875q-1.09375 -0.390625 -4.78125 -0.390625l-4.359375 0zm20.488403 4.765625l5.109375 -0.53125q0.21875 1.734375 1.28125 2.75q1.078125 1.015625 2.484375 1.015625q1.609375 0 2.71875 -1.296875q1.109375 -1.3125 1.109375 -3.9375q0 -2.46875 -1.109375 -3.6875q-1.09375 -1.234375 -2.859375 -1.234375q-2.203125 0 -3.953125 1.953125l-4.15625 -0.609375l2.625 -13.90625l13.546875 0l0 4.796875l-9.671875 0l-0.796875 4.53125q1.71875 -0.84375 3.5 -0.84375q3.40625 0 5.765625 2.484375q2.375 2.46875 2.375 6.421875q0 3.296875 -1.90625 5.890625q-2.609375 3.53125 -7.234375 3.53125q-3.703125 0 -6.046875 -1.984375q-2.328125 -1.984375 -2.78125 -5.34375z" fill-rule="nonzero"/><path fill="#ffffff" d="m785.52686 174.47398l151.62201 0l0 151.62206l-151.62201 0z" fill-rule="evenodd"/><path stroke="#000000" stroke-width="12.0" stroke-linejoin="round" stroke-linecap="butt" d="m785.52686 174.47398l151.62201 0l0 151.62206l-151.62201 0z" fill-rule="evenodd"/><path fill="#000000" d="m840.21356 236.90625l10.6875 0q3.171875 0 4.71875 0.265625q1.5625 0.265625 2.78125 1.109375q1.234375 0.828125 2.046875 2.234375q0.828125 1.390625 0.828125 3.109375q0 1.875 -1.015625 3.453125q-1.0 1.5625 -2.734375 2.34375q2.4375 0.71875 3.75 2.4375q1.3125 1.703125 1.3125 4.015625q0 1.828125 -0.84375 3.546875q-0.84375 1.71875 -2.3125 2.75q-1.46875 1.03125 -3.609375 1.265625q-1.359375 0.15625 -6.515625 0.1875l-9.09375 0l0 -26.71875zm5.390625 4.453125l0 6.171875l3.546875 0q3.140625 0 3.90625 -0.09375q1.390625 -0.15625 2.1875 -0.953125q0.796875 -0.796875 0.796875 -2.09375q0 -1.234375 -0.6875 -2.0q-0.6875 -0.78125 -2.03125 -0.953125q-0.8125 -0.078125 -4.609375 -0.078125l-3.109375 0zm0 10.625l0 7.140625l5.0 0q2.921875 0 3.703125 -0.171875q1.203125 -0.21875 1.953125 -1.0625q0.75 -0.84375 0.75 -2.265625q0 -1.203125 -0.578125 -2.03125q-0.578125 -0.84375 -1.6875 -1.21875q-1.09375 -0.390625 -4.78125 -0.390625l-4.359375 0zm37.769714 -8.53125l-4.953125 0.546875q-0.1875 -1.53125 -0.953125 -2.265625q-0.765625 -0.734375 -1.984375 -0.734375q-1.625 0 -2.75 1.46875q-1.109375 1.453125 -1.40625 6.0625q1.90625 -2.265625 4.75 -2.265625q3.21875 0 5.5 2.453125q2.28125 2.4375 2.28125 6.296875q0 4.109375 -2.40625 6.59375q-2.390625 2.46875 -6.171875 2.46875q-4.046875 0 -6.65625 -3.140625q-2.609375 -3.140625 -2.609375 -10.3125q0 -7.34375 2.71875 -10.578125q2.71875 -3.25 7.0625 -3.25q3.046875 0 5.03125 1.703125q2.0 1.703125 2.546875 4.953125zm-11.609375 11.171875q0 2.5 1.140625 3.859375q1.15625 1.34375 2.625 1.34375q1.421875 0 2.375 -1.109375q0.953125 -1.109375 0.953125 -3.640625q0 -2.609375 -1.03125 -3.8125q-1.015625 -1.21875 -2.546875 -1.21875q-1.46875 0 -2.5 1.15625q-1.015625 1.15625 -1.015625 3.421875z" fill-rule="nonzero"/><path fill="#b7b7b7" d="m27.454847 326.08838l151.62204 0l0 151.62207l-151.62204 0z" fill-rule="evenodd"/><path stroke="#000000" stroke-width="12.0" stroke-linejoin="round" stroke-linecap="butt" d="m27.454847 326.08838l151.62204 0l0 151.62207l-151.62204 0z" fill-rule="evenodd"/><path fill="#000000" d="m99.21971 405.4113l5.234375 1.65625q-1.203125 4.375 -4.0 6.5q-2.796875 2.125 -7.109375 2.125q-5.3125 0 -8.75 -3.625q-3.421875 -3.640625 -3.421875 -9.953125q0 -6.671875 3.4375 -10.359375q3.453125 -3.6875 9.0625 -3.6875q4.90625 0 7.96875 2.890625q1.828125 1.71875 2.734375 4.921875l-5.34375 1.28125q-0.46875 -2.078125 -1.96875 -3.28125q-1.5 -1.203125 -3.65625 -1.203125q-2.96875 0 -4.828125 2.140625q-1.84375 2.125 -1.84375 6.890625q0 5.078125 1.8125 7.234375q1.828125 2.140625 4.75 2.140625q2.15625 0 3.703125 -1.359375q1.546875 -1.375 2.21875 -4.3125zm21.832184 9.828125l-5.125 0l0 -19.296875q-2.796875 2.625 -6.609375 3.875l0 -4.640625q2.0 -0.65625 4.34375 -2.484375q2.359375 -1.84375 3.234375 -4.28125l4.15625 0l0 26.828125z" fill-rule="nonzero"/><path fill="#ffffff" d="m179.06924 326.08838l151.62204 0l0 151.62207l-151.62204 0z" fill-rule="evenodd"/><path stroke="#000000" stroke-width="12.0" stroke-linejoin="round" stroke-linecap="butt" d="m179.06924 326.08838l151.62204 0l0 151.62207l-151.62204 0z" fill-rule="evenodd"/><path fill="#000000" d="m250.8341 405.4113l5.234375 1.65625q-1.203125 4.375 -4.0 6.5q-2.796875 2.125 -7.109375 2.125q-5.3125 0 -8.75 -3.625q-3.421875 -3.640625 -3.421875 -9.953125q0 -6.671875 3.4375 -10.359375q3.453125 -3.6875 9.0625 -3.6875q4.90625 0 7.96875 2.890625q1.828125 1.71875 2.734375 4.921875l-5.34375 1.28125q-0.46875 -2.078125 -1.96875 -3.28125q-1.5 -1.203125 -3.65625 -1.203125q-2.96875 0 -4.828125 2.140625q-1.84375 2.125 -1.84375 6.890625q0 5.078125 1.8125 7.234375q1.828125 2.140625 4.75 2.140625q2.15625 0 3.703125 -1.359375q1.546875 -1.375 2.21875 -4.3125zm26.019684 5.078125l0 4.75l-17.953125 0q0.296875 -2.703125 1.75 -5.109375q1.46875 -2.421875 5.765625 -6.40625q3.46875 -3.234375 4.25 -4.375q1.0625 -1.59375 1.0625 -3.140625q0 -1.703125 -0.921875 -2.625q-0.921875 -0.921875 -2.546875 -0.921875q-1.609375 0 -2.5625 0.96875q-0.9375 0.953125 -1.078125 3.203125l-5.109375 -0.515625q0.453125 -4.21875 2.859375 -6.0625q2.40625 -1.84375 6.015625 -1.84375q3.953125 0 6.203125 2.140625q2.265625 2.125 2.265625 5.296875q0 1.796875 -0.640625 3.4375q-0.640625 1.625 -2.046875 3.40625q-0.9375 1.1875 -3.359375 3.421875q-2.421875 2.21875 -3.078125 2.953125q-0.640625 0.71875 -1.03125 1.421875l10.15625 0z" fill-rule="nonzero"/><path fill="#ffffff" d="m330.68365 326.08838l151.62204 0l0 151.62207l-151.62204 0z" fill-rule="evenodd"/><path stroke="#000000" stroke-width="12.0" stroke-linejoin="round" stroke-linecap="butt" d="m330.68365 326.08838l151.62204 0l0 151.62207l-151.62204 0z" fill-rule="evenodd"/><path fill="#000000" d="m402.44852 405.4113l5.234375 1.65625q-1.203125 4.375 -4.0 6.5q-2.796875 2.125 -7.109375 2.125q-5.3125 0 -8.75 -3.625q-3.421875 -3.640625 -3.421875 -9.953125q0 -6.671875 3.4375 -10.359375q3.453125 -3.6875 9.0625 -3.6875q4.90625 0 7.96875 2.890625q1.828125 1.71875 2.734375 4.921875l-5.34375 1.28125q-0.46875 -2.078125 -1.96875 -3.28125q-1.5 -1.203125 -3.65625 -1.203125q-2.96875 0 -4.828125 2.140625q-1.84375 2.125 -1.84375 6.890625q0 5.078125 1.8125 7.234375q1.828125 2.140625 4.75 2.140625q2.15625 0 3.703125 -1.359375q1.546875 -1.375 2.21875 -4.3125zm8.550934 2.734375l4.953125 -0.59375q0.234375 1.890625 1.265625 2.890625q1.046875 1.0 2.53125 1.0q1.578125 0 2.65625 -1.203125q1.09375 -1.203125 1.09375 -3.234375q0 -1.9375 -1.046875 -3.0625q-1.03125 -1.140625 -2.53125 -1.140625q-0.984375 0 -2.34375 0.390625l0.5625 -4.171875q2.078125 0.046875 3.171875 -0.90625q1.09375 -0.953125 1.09375 -2.546875q0 -1.34375 -0.8125 -2.140625q-0.796875 -0.8125 -2.125 -0.8125q-1.3125 0 -2.25 0.921875q-0.921875 0.90625 -1.125 2.65625l-4.71875 -0.796875q0.5 -2.421875 1.484375 -3.875q1.0 -1.453125 2.765625 -2.28125q1.78125 -0.828125 4.0 -0.828125q3.765625 0 6.046875 2.40625q1.875 1.96875 1.875 4.453125q0 3.515625 -3.84375 5.609375q2.296875 0.484375 3.671875 2.203125q1.375 1.71875 1.375 4.140625q0 3.515625 -2.578125 6.0q-2.5625 2.46875 -6.390625 2.46875q-3.625 0 -6.015625 -2.078125q-2.390625 -2.09375 -2.765625 -5.46875z" fill-rule="nonzero"/><path fill="#ffffff" d="m482.29803 326.08838l151.62207 0l0 151.62207l-151.62207 0z" fill-rule="evenodd"/><path stroke="#000000" stroke-width="12.0" stroke-linejoin="round" stroke-linecap="butt" d="m482.29803 326.08838l151.62207 0l0 151.62207l-151.62207 0z" fill-rule="evenodd"/><path fill="#000000" d="m554.0629 405.4113l5.234375 1.65625q-1.203125 4.375 -4.0 6.5q-2.796875 2.125 -7.109375 2.125q-5.3125 0 -8.75 -3.625q-3.421875 -3.640625 -3.421875 -9.953125q0 -6.671875 3.4375 -10.359375q3.453125 -3.6875 9.0625 -3.6875q4.90625 0 7.96875 2.890625q1.828125 1.71875 2.734375 4.921875l-5.34375 1.28125q-0.46875 -2.078125 -1.96875 -3.28125q-1.5 -1.203125 -3.65625 -1.203125q-2.96875 0 -4.828125 2.140625q-1.84375 2.125 -1.84375 6.890625q0 5.078125 1.8125 7.234375q1.828125 2.140625 4.75 2.140625q2.15625 0 3.703125 -1.359375q1.546875 -1.375 2.21875 -4.3125zm18.769653 9.828125l0 -5.375l-10.9375 0l0 -4.484375l11.59375 -16.96875l4.3125 0l0 16.953125l3.3125 0l0 4.5l-3.3125 0l0 5.375l-4.96875 0zm0 -9.875l0 -9.140625l-6.140625 9.140625l6.140625 0z" fill-rule="nonzero"/><path fill="#ffffff" d="m633.9124 326.08838l151.62207 0l0 151.62207l-151.62207 0z" fill-rule="evenodd"/><path stroke="#000000" stroke-width="12.0" stroke-linejoin="round" stroke-linecap="butt" d="m633.9124 326.08838l151.62207 0l0 151.62207l-151.62207 0z" fill-rule="evenodd"/><path fill="#000000" d="m705.6773 405.4113l5.234375 1.65625q-1.203125 4.375 -4.0 6.5q-2.796875 2.125 -7.109375 2.125q-5.3125 0 -8.75 -3.625q-3.421875 -3.640625 -3.421875 -9.953125q0 -6.671875 3.4375 -10.359375q3.453125 -3.6875 9.0625 -3.6875q4.90625 0 7.96875 2.890625q1.828125 1.71875 2.734375 4.921875l-5.34375 1.28125q-0.46875 -2.078125 -1.96875 -3.28125q-1.5 -1.203125 -3.65625 -1.203125q-2.96875 0 -4.828125 2.140625q-1.84375 2.125 -1.84375 6.890625q0 5.078125 1.8125 7.234375q1.828125 2.140625 4.75 2.140625q2.15625 0 3.703125 -1.359375q1.546875 -1.375 2.21875 -4.3125zm8.800903 2.953125l5.109375 -0.53125q0.21875 1.734375 1.28125 2.75q1.078125 1.015625 2.484375 1.015625q1.609375 0 2.71875 -1.296875q1.109375 -1.3125 1.109375 -3.9375q0 -2.46875 -1.109375 -3.6875q-1.09375 -1.234375 -2.859375 -1.234375q-2.203125 0 -3.953125 1.953125l-4.15625 -0.609375l2.625 -13.90625l13.546875 0l0 4.796875l-9.671875 0l-0.796875 4.53125q1.71875 -0.84375 3.5 -0.84375q3.40625 0 5.765625 2.484375q2.375 2.46875 2.375 6.421875q0 3.296875 -1.90625 5.890625q-2.609375 3.53125 -7.234375 3.53125q-3.703125 0 -6.046875 -1.984375q-2.328125 -1.984375 -2.78125 -5.34375z" fill-rule="nonzero"/><path fill="#b7b7b7" d="m785.52686 326.08838l151.62201 0l0 151.62207l-151.62201 0z" fill-rule="evenodd"/><path stroke="#000000" stroke-width="12.0" stroke-linejoin="round" stroke-linecap="butt" d="m785.52686 326.08838l151.62201 0l0 151.62207l-151.62201 0z" fill-rule="evenodd"/><path fill="#000000" d="m857.2917 405.4113l5.234375 1.65625q-1.203125 4.375 -4.0 6.5q-2.796875 2.125 -7.109375 2.125q-5.3125 0 -8.75 -3.625q-3.421875 -3.640625 -3.421875 -9.953125q0 -6.671875 3.4375 -10.359375q3.453125 -3.6875 9.0625 -3.6875q4.90625 0 7.96875 2.890625q1.828125 1.71875 2.734375 4.921875l-5.34375 1.28125q-0.46875 -2.078125 -1.96875 -3.28125q-1.5 -1.203125 -3.65625 -1.203125q-2.96875 0 -4.828125 2.140625q-1.84375 2.125 -1.84375 6.890625q0 5.078125 1.8125 7.234375q1.828125 2.140625 4.75 2.140625q2.15625 0 3.703125 -1.359375q1.546875 -1.375 2.21875 -4.3125zm26.082214 -10.34375l-4.953125 0.546875q-0.1875 -1.53125 -0.953125 -2.265625q-0.765625 -0.734375 -1.984375 -0.734375q-1.625 0 -2.75 1.46875q-1.109375 1.453125 -1.40625 6.0625q1.90625 -2.265625 4.75 -2.265625q3.21875 0 5.5 2.453125q2.28125 2.4375 2.28125 6.296875q0 4.109375 -2.40625 6.59375q-2.390625 2.46875 -6.171875 2.46875q-4.046875 0 -6.65625 -3.140625q-2.609375 -3.140625 -2.609375 -10.3125q0 -7.34375 2.71875 -10.578125q2.71875 -3.25 7.0625 -3.25q3.046875 0 5.03125 1.703125q2.0 1.703125 2.546875 4.953125zm-11.609375 11.171875q0 2.5 1.140625 3.859375q1.15625 1.34375 2.625 1.34375q1.421875 0 2.375 -1.109375q0.953125 -1.109375 0.953125 -3.640625q0 -2.609375 -1.03125 -3.8125q-1.015625 -1.21875 -2.546875 -1.21875q-1.46875 0 -2.5 1.15625q-1.015625 1.15625 -1.015625 3.421875z" fill-rule="nonzero"/><path fill="#b7b7b7" d="m27.454847 477.7028l151.62204 0l0 151.62204l-151.62204 0z" fill-rule="evenodd"/><path stroke="#000000" stroke-width="12.0" stroke-linejoin="round" stroke-linecap="butt" d="m27.454847 477.7028l151.62204 0l0 151.62204l-151.62204 0z" fill-rule="evenodd"/><path fill="#000000" d="m82.11034 540.1351l9.859375 0q3.328125 0 5.078125 0.515625q2.359375 0.6875 4.03125 2.453125q1.671875 1.765625 2.546875 4.328125q0.875 2.5625 0.875 6.3125q0 3.296875 -0.8125 5.6875q-1.0 2.921875 -2.859375 4.71875q-1.40625 1.375 -3.796875 2.140625q-1.78125 0.5625 -4.78125 0.5625l-10.140625 0l0 -26.71875zm5.390625 4.515625l0 17.703125l4.03125 0q2.25 0 3.265625 -0.25q1.3125 -0.328125 2.171875 -1.109375q0.859375 -0.796875 1.40625 -2.59375q0.546875 -1.796875 0.546875 -4.890625q0 -3.09375 -0.546875 -4.75q-0.546875 -1.65625 -1.53125 -2.578125q-0.984375 -0.9375 -2.484375 -1.265625q-1.140625 -0.265625 -4.4375 -0.265625l-2.421875 0zm33.550934 22.203125l-5.125 0l0 -19.296875q-2.796875 2.625 -6.609375 3.875l0 -4.640625q2.0 -0.65625 4.34375 -2.484375q2.359375 -1.84375 3.234375 -4.28125l4.15625 0l0 26.828125z" fill-rule="nonzero"/><path fill="#ffffff" d="m179.06924 477.7028l151.62204 0l0 151.62204l-151.62204 0z" fill-rule="evenodd"/><path stroke="#000000" stroke-width="12.0" stroke-linejoin="round" stroke-linecap="butt" d="m179.06924 477.7028l151.62204 0l0 151.62204l-151.62204 0z" fill-rule="evenodd"/><path fill="#000000" d="m233.72473 540.1351l9.859375 0q3.328125 0 5.078125 0.515625q2.359375 0.6875 4.03125 2.453125q1.671875 1.765625 2.546875 4.328125q0.875 2.5625 0.875 6.3125q0 3.296875 -0.8125 5.6875q-1.0 2.921875 -2.859375 4.71875q-1.40625 1.375 -3.796875 2.140625q-1.78125 0.5625 -4.78125 0.5625l-10.140625 0l0 -26.71875zm5.390625 4.515625l0 17.703125l4.03125 0q2.25 0 3.265625 -0.25q1.3125 -0.328125 2.171875 -1.109375q0.859375 -0.796875 1.40625 -2.59375q0.546875 -1.796875 0.546875 -4.890625q0 -3.09375 -0.546875 -4.75q-0.546875 -1.65625 -1.53125 -2.578125q-0.984375 -0.9375 -2.484375 -1.265625q-1.140625 -0.265625 -4.4375 -0.265625l-2.421875 0zm37.738434 17.453125l0 4.75l-17.953125 0q0.296875 -2.703125 1.75 -5.109375q1.46875 -2.421875 5.765625 -6.40625q3.46875 -3.234375 4.25 -4.375q1.0625 -1.59375 1.0625 -3.140625q0 -1.703125 -0.921875 -2.625q-0.921875 -0.921875 -2.546875 -0.921875q-1.609375 0 -2.5625 0.96875q-0.9375 0.953125 -1.078125 3.203125l-5.109375 -0.515625q0.453125 -4.21875 2.859375 -6.0625q2.40625 -1.84375 6.015625 -1.84375q3.953125 0 6.203125 2.140625q2.265625 2.125 2.265625 5.296875q0 1.796875 -0.640625 3.4375q-0.640625 1.625 -2.046875 3.40625q-0.9375 1.1875 -3.359375 3.421875q-2.421875 2.21875 -3.078125 2.953125q-0.640625 0.71875 -1.03125 1.421875l10.15625 0z" fill-rule="nonzero"/><path fill="#ffffff" d="m330.68365 477.7028l151.62204 0l0 151.62204l-151.62204 0z" fill-rule="evenodd"/><path stroke="#000000" stroke-width="12.0" stroke-linejoin="round" stroke-linecap="butt" d="m330.68365 477.7028l151.62204 0l0 151.62204l-151.62204 0z" fill-rule="evenodd"/><path fill="#000000" d="m385.33914 540.1351l9.859375 0q3.328125 0 5.078125 0.515625q2.359375 0.6875 4.03125 2.453125q1.671875 1.765625 2.546875 4.328125q0.875 2.5625 0.875 6.3125q0 3.296875 -0.8125 5.6875q-1.0 2.921875 -2.859375 4.71875q-1.40625 1.375 -3.796875 2.140625q-1.78125 0.5625 -4.78125 0.5625l-10.140625 0l0 -26.71875zm5.390625 4.515625l0 17.703125l4.03125 0q2.25 0 3.265625 -0.25q1.3125 -0.328125 2.171875 -1.109375q0.859375 -0.796875 1.40625 -2.59375q0.546875 -1.796875 0.546875 -4.890625q0 -3.09375 -0.546875 -4.75q-0.546875 -1.65625 -1.53125 -2.578125q-0.984375 -0.9375 -2.484375 -1.265625q-1.140625 -0.265625 -4.4375 -0.265625l-2.421875 0zm20.269684 15.109375l4.953125 -0.59375q0.234375 1.890625 1.265625 2.890625q1.046875 1.0 2.53125 1.0q1.578125 0 2.65625 -1.203125q1.09375 -1.203125 1.09375 -3.234375q0 -1.9375 -1.046875 -3.0625q-1.03125 -1.140625 -2.53125 -1.140625q-0.984375 0 -2.34375 0.390625l0.5625 -4.171875q2.078125 0.046875 3.171875 -0.90625q1.09375 -0.953125 1.09375 -2.546875q0 -1.34375 -0.8125 -2.140625q-0.796875 -0.8125 -2.125 -0.8125q-1.3125 0 -2.25 0.921875q-0.921875 0.90625 -1.125 2.65625l-4.71875 -0.796875q0.5 -2.421875 1.484375 -3.875q1.0 -1.453125 2.765625 -2.28125q1.78125 -0.828125 4.0 -0.828125q3.765625 0 6.046875 2.40625q1.875 1.96875 1.875 4.453125q0 3.515625 -3.84375 5.609375q2.296875 0.484375 3.671875 2.203125q1.375 1.71875 1.375 4.140625q0 3.515625 -2.578125 6.0q-2.5625 2.46875 -6.390625 2.46875q-3.625 0 -6.015625 -2.078125q-2.390625 -2.09375 -2.765625 -5.46875z" fill-rule="nonzero"/><path fill="#ffffff" d="m482.29803 477.7028l151.62207 0l0 151.62204l-151.62207 0z" fill-rule="evenodd"/><path stroke="#000000" stroke-width="12.0" stroke-linejoin="round" stroke-linecap="butt" d="m482.29803 477.7028l151.62207 0l0 151.62204l-151.62207 0z" fill-rule="evenodd"/><path fill="#000000" d="m536.95355 540.1351l9.859375 0q3.328125 0 5.078125 0.515625q2.359375 0.6875 4.03125 2.453125q1.671875 1.765625 2.546875 4.328125q0.875 2.5625 0.875 6.3125q0 3.296875 -0.8125 5.6875q-1.0 2.921875 -2.859375 4.71875q-1.40625 1.375 -3.796875 2.140625q-1.78125 0.5625 -4.78125 0.5625l-10.140625 0l0 -26.71875zm5.390625 4.515625l0 17.703125l4.03125 0q2.25 0 3.265625 -0.25q1.3125 -0.328125 2.171875 -1.109375q0.859375 -0.796875 1.40625 -2.59375q0.546875 -1.796875 0.546875 -4.890625q0 -3.09375 -0.546875 -4.75q-0.546875 -1.65625 -1.53125 -2.578125q-0.984375 -0.9375 -2.484375 -1.265625q-1.140625 -0.265625 -4.4375 -0.265625l-2.421875 0zm30.488403 22.203125l0 -5.375l-10.9375 0l0 -4.484375l11.59375 -16.96875l4.3125 0l0 16.953125l3.3125 0l0 4.5l-3.3125 0l0 5.375l-4.96875 0zm0 -9.875l0 -9.140625l-6.140625 9.140625l6.140625 0z" fill-rule="nonzero"/><path fill="#ffffff" d="m633.9124 477.7028l151.62207 0l0 151.62204l-151.62207 0z" fill-rule="evenodd"/><path stroke="#000000" stroke-width="12.0" stroke-linejoin="round" stroke-linecap="butt" d="m633.9124 477.7028l151.62207 0l0 151.62204l-151.62207 0z" fill-rule="evenodd"/><path fill="#000000" d="m688.56793 540.1351l9.859375 0q3.328125 0 5.078125 0.515625q2.359375 0.6875 4.03125 2.453125q1.671875 1.765625 2.546875 4.328125q0.875 2.5625 0.875 6.3125q0 3.296875 -0.8125 5.6875q-1.0 2.921875 -2.859375 4.71875q-1.40625 1.375 -3.796875 2.140625q-1.78125 0.5625 -4.78125 0.5625l-10.140625 0l0 -26.71875zm5.390625 4.515625l0 17.703125l4.03125 0q2.25 0 3.265625 -0.25q1.3125 -0.328125 2.171875 -1.109375q0.859375 -0.796875 1.40625 -2.59375q0.546875 -1.796875 0.546875 -4.890625q0 -3.09375 -0.546875 -4.75q-0.546875 -1.65625 -1.53125 -2.578125q-0.984375 -0.9375 -2.484375 -1.265625q-1.140625 -0.265625 -4.4375 -0.265625l-2.421875 0zm20.519653 15.328125l5.109375 -0.53125q0.21875 1.734375 1.28125 2.75q1.078125 1.015625 2.484375 1.015625q1.609375 0 2.71875 -1.296875q1.109375 -1.3125 1.109375 -3.9375q0 -2.46875 -1.109375 -3.6875q-1.09375 -1.234375 -2.859375 -1.234375q-2.203125 0 -3.953125 1.953125l-4.15625 -0.609375l2.625 -13.90625l13.546875 0l0 4.796875l-9.671875 0l-0.796875 4.53125q1.71875 -0.84375 3.5 -0.84375q3.40625 0 5.765625 2.484375q2.375 2.46875 2.375 6.421875q0 3.296875 -1.90625 5.890625q-2.609375 3.53125 -7.234375 3.53125q-3.703125 0 -6.046875 -1.984375q-2.328125 -1.984375 -2.78125 -5.34375z" fill-rule="nonzero"/><path fill="#b7b7b7" d="m785.52686 477.7028l151.62201 0l0 151.62204l-151.62201 0z" fill-rule="evenodd"/><path stroke="#000000" stroke-width="12.0" stroke-linejoin="round" stroke-linecap="butt" d="m785.52686 477.7028l151.62201 0l0 151.62204l-151.62201 0z" fill-rule="evenodd"/><path fill="#000000" d="m840.1823 540.1351l9.859375 0q3.328125 0 5.078125 0.515625q2.359375 0.6875 4.03125 2.453125q1.671875 1.765625 2.546875 4.328125q0.875 2.5625 0.875 6.3125q0 3.296875 -0.8125 5.6875q-1.0 2.921875 -2.859375 4.71875q-1.40625 1.375 -3.796875 2.140625q-1.78125 0.5625 -4.78125 0.5625l-10.140625 0l0 -26.71875zm5.390625 4.515625l0 17.703125l4.03125 0q2.25 0 3.265625 -0.25q1.3125 -0.328125 2.171875 -1.109375q0.859375 -0.796875 1.40625 -2.59375q0.546875 -1.796875 0.546875 -4.890625q0 -3.09375 -0.546875 -4.75q-0.546875 -1.65625 -1.53125 -2.578125q-0.984375 -0.9375 -2.484375 -1.265625q-1.140625 -0.265625 -4.4375 -0.265625l-2.421875 0zm37.800964 2.03125l-4.953125 0.546875q-0.1875 -1.53125 -0.953125 -2.265625q-0.765625 -0.734375 -1.984375 -0.734375q-1.625 0 -2.75 1.46875q-1.109375 1.453125 -1.40625 6.0625q1.90625 -2.265625 4.75 -2.265625q3.21875 0 5.5 2.453125q2.28125 2.4375 2.28125 6.296875q0 4.109375 -2.40625 6.59375q-2.390625 2.46875 -6.171875 2.46875q-4.046875 0 -6.65625 -3.140625q-2.609375 -3.140625 -2.609375 -10.3125q0 -7.34375 2.71875 -10.578125q2.71875 -3.25 7.0625 -3.25q3.046875 0 5.03125 1.703125q2.0 1.703125 2.546875 4.953125zm-11.609375 11.171875q0 2.5 1.140625 3.859375q1.15625 1.34375 2.625 1.34375q1.421875 0 2.375 -1.109375q0.953125 -1.109375 0.953125 -3.640625q0 -2.609375 -1.03125 -3.8125q-1.015625 -1.21875 -2.546875 -1.21875q-1.46875 0 -2.5 1.15625q-1.015625 1.15625 -1.015625 3.421875z" fill-rule="nonzero"/><path fill="#ffffff" d="m27.454847 629.3172l151.62204 0l0 151.62201l-151.62204 0z" fill-rule="evenodd"/><path stroke="#000000" stroke-width="12.0" stroke-linejoin="round" stroke-linecap="butt" d="m27.454847 629.3172l151.62204 0l0 151.62201l-151.62204 0z" fill-rule="evenodd"/><path fill="#000000" d="m83.15577 718.4682l0 -26.71875l19.8125 0l0 4.515625l-14.421875 0l0 5.921875l13.421875 0l0 4.5l-13.421875 0l0 7.28125l14.921875 0l0 4.5l-20.3125 0zm36.866318 0l-5.125 0l0 -19.296875q-2.796875 2.625 -6.609375 3.875l0 -4.640625q2.0 -0.65625 4.34375 -2.484375q2.359375 -1.84375 3.234375 -4.28125l4.15625 0l0 26.828125z" fill-rule="nonzero"/><path fill="#ffffff" d="m179.06924 629.3172l151.62204 0l0 151.62201l-151.62204 0z" fill-rule="evenodd"/><path stroke="#000000" stroke-width="12.0" stroke-linejoin="round" stroke-linecap="butt" d="m179.06924 629.3172l151.62204 0l0 151.62201l-151.62204 0z" fill-rule="evenodd"/><path fill="#000000" d="m234.77016 718.4682l0 -26.71875l19.8125 0l0 4.515625l-14.421875 0l0 5.921875l13.421875 0l0 4.5l-13.421875 0l0 7.28125l14.921875 0l0 4.5l-20.3125 0zm41.053818 -4.75l0 4.75l-17.953125 0q0.296875 -2.703125 1.75 -5.109375q1.46875 -2.421875 5.765625 -6.40625q3.46875 -3.234375 4.25 -4.375q1.0625 -1.59375 1.0625 -3.140625q0 -1.703125 -0.921875 -2.625q-0.921875 -0.921875 -2.546875 -0.921875q-1.609375 0 -2.5625 0.96875q-0.9375 0.953125 -1.078125 3.203125l-5.109375 -0.515625q0.453125 -4.21875 2.859375 -6.0625q2.40625 -1.84375 6.015625 -1.84375q3.953125 0 6.203125 2.140625q2.265625 2.125 2.265625 5.296875q0 1.796875 -0.640625 3.4375q-0.640625 1.625 -2.046875 3.40625q-0.9375 1.1875 -3.359375 3.421875q-2.421875 2.21875 -3.078125 2.953125q-0.640625 0.71875 -1.03125 1.421875l10.15625 0z" fill-rule="nonzero"/><path fill="#ffffff" d="m330.68365 629.3172l151.62204 0l0 151.62201l-151.62204 0z" fill-rule="evenodd"/><path stroke="#000000" stroke-width="12.0" stroke-linejoin="round" stroke-linecap="butt" d="m330.68365 629.3172l151.62204 0l0 151.62201l-151.62204 0z" fill-rule="evenodd"/><path fill="#000000" d="m386.38455 718.4682l0 -26.71875l19.8125 0l0 4.515625l-14.421875 0l0 5.921875l13.421875 0l0 4.5l-13.421875 0l0 7.28125l14.921875 0l0 4.5l-20.3125 0zm23.585083 -7.09375l4.953125 -0.59375q0.234375 1.890625 1.265625 2.890625q1.046875 1.0 2.53125 1.0q1.578125 0 2.65625 -1.203125q1.09375 -1.203125 1.09375 -3.234375q0 -1.9375 -1.046875 -3.0625q-1.03125 -1.140625 -2.53125 -1.140625q-0.984375 0 -2.34375 0.390625l0.5625 -4.171875q2.078125 0.046875 3.171875 -0.90625q1.09375 -0.953125 1.09375 -2.546875q0 -1.34375 -0.8125 -2.140625q-0.796875 -0.8125 -2.125 -0.8125q-1.3125 0 -2.25 0.921875q-0.921875 0.90625 -1.125 2.65625l-4.71875 -0.796875q0.5 -2.421875 1.484375 -3.875q1.0 -1.453125 2.765625 -2.28125q1.78125 -0.828125 4.0 -0.828125q3.765625 0 6.046875 2.40625q1.875 1.96875 1.875 4.453125q0 3.515625 -3.84375 5.609375q2.296875 0.484375 3.671875 2.203125q1.375 1.71875 1.375 4.140625q0 3.515625 -2.578125 6.0q-2.5625 2.46875 -6.390625 2.46875q-3.625 0 -6.015625 -2.078125q-2.390625 -2.09375 -2.765625 -5.46875z" fill-rule="nonzero"/><path fill="#ffffff" d="m482.29803 629.3172l151.62207 0l0 151.62201l-151.62207 0z" fill-rule="evenodd"/><path stroke="#000000" stroke-width="12.0" stroke-linejoin="round" stroke-linecap="butt" d="m482.29803 629.3172l151.62207 0l0 151.62201l-151.62207 0z" fill-rule="evenodd"/><path fill="#000000" d="m537.99896 718.4682l0 -26.71875l19.8125 0l0 4.515625l-14.421875 0l0 5.921875l13.421875 0l0 4.5l-13.421875 0l0 7.28125l14.921875 0l0 4.5l-20.3125 0zm33.803833 0l0 -5.375l-10.9375 0l0 -4.484375l11.59375 -16.96875l4.3125 0l0 16.953125l3.3125 0l0 4.5l-3.3125 0l0 5.375l-4.96875 0zm0 -9.875l0 -9.140625l-6.140625 9.140625l6.140625 0z" fill-rule="nonzero"/><path fill="#ffffff" d="m633.9124 629.3172l151.62207 0l0 151.62201l-151.62207 0z" fill-rule="evenodd"/><path stroke="#000000" stroke-width="12.0" stroke-linejoin="round" stroke-linecap="butt" d="m633.9124 629.3172l151.62207 0l0 151.62201l-151.62207 0z" fill-rule="evenodd"/><path fill="#000000" d="m689.61334 718.4682l0 -26.71875l19.8125 0l0 4.515625l-14.421875 0l0 5.921875l13.421875 0l0 4.5l-13.421875 0l0 7.28125l14.921875 0l0 4.5l-20.3125 0zm23.835083 -6.875l5.109375 -0.53125q0.21875 1.734375 1.28125 2.75q1.078125 1.015625 2.484375 1.015625q1.609375 0 2.71875 -1.296875q1.109375 -1.3125 1.109375 -3.9375q0 -2.46875 -1.109375 -3.6875q-1.09375 -1.234375 -2.859375 -1.234375q-2.203125 0 -3.953125 1.953125l-4.15625 -0.609375l2.625 -13.90625l13.546875 0l0 4.796875l-9.671875 0l-0.796875 4.53125q1.71875 -0.84375 3.5 -0.84375q3.40625 0 5.765625 2.484375q2.375 2.46875 2.375 6.421875q0 3.296875 -1.90625 5.890625q-2.609375 3.53125 -7.234375 3.53125q-3.703125 0 -6.046875 -1.984375q-2.328125 -1.984375 -2.78125 -5.34375z" fill-rule="nonzero"/><path fill="#b7b7b7" d="m785.52686 629.3172l151.62201 0l0 151.62201l-151.62201 0z" fill-rule="evenodd"/><path stroke="#000000" stroke-width="12.0" stroke-linejoin="round" stroke-linecap="butt" d="m785.52686 629.3172l151.62201 0l0 151.62201l-151.62201 0z" fill-rule="evenodd"/><path fill="#000000" d="m841.2278 718.4682l0 -26.71875l19.8125 0l0 4.515625l-14.421875 0l0 5.921875l13.421875 0l0 4.5l-13.421875 0l0 7.28125l14.921875 0l0 4.5l-20.3125 0zm41.116272 -20.171875l-4.953125 0.546875q-0.1875 -1.53125 -0.953125 -2.265625q-0.765625 -0.734375 -1.984375 -0.734375q-1.625 0 -2.75 1.46875q-1.109375 1.453125 -1.40625 6.0625q1.90625 -2.265625 4.75 -2.265625q3.21875 0 5.5 2.453125q2.28125 2.4375 2.28125 6.296875q0 4.109375 -2.40625 6.59375q-2.390625 2.46875 -6.171875 2.46875q-4.046875 0 -6.65625 -3.140625q-2.609375 -3.140625 -2.609375 -10.3125q0 -7.34375 2.71875 -10.578125q2.71875 -3.25 7.0625 -3.25q3.046875 0 5.03125 1.703125q2.0 1.703125 2.546875 4.953125zm-11.609375 11.171875q0 2.5 1.140625 3.859375q1.15625 1.34375 2.625 1.34375q1.421875 0 2.375 -1.109375q0.953125 -1.109375 0.953125 -3.640625q0 -2.609375 -1.03125 -3.8125q-1.015625 -1.21875 -2.546875 -1.21875q-1.46875 0 -2.5 1.15625q-1.015625 1.15625 -1.015625 3.421875z" fill-rule="nonzero"/><path fill="#ffffff" d="m27.454847 780.9316l151.62204 0l0 151.62207l-151.62204 0z" fill-rule="evenodd"/><path stroke="#000000" stroke-width="12.0" stroke-linejoin="round" stroke-linecap="butt" d="m27.454847 780.9316l151.62204 0l0 151.62207l-151.62204 0z" fill-rule="evenodd"/><path fill="#000000" d="m84.23505 870.0826l0 -26.71875l18.3125 0l0 4.515625l-12.921875 0l0 6.328125l11.15625 0l0 4.515625l-11.15625 0l0 11.359375l-5.390625 0zm34.739014 0l-5.125 0l0 -19.296875q-2.796875 2.625 -6.609375 3.875l0 -4.640625q2.0 -0.65625 4.34375 -2.484375q2.359375 -1.84375 3.234375 -4.28125l4.15625 0l0 26.828125z" fill-rule="nonzero"/><path fill="#ffffff" d="m179.06924 780.9316l151.62204 0l0 151.62207l-151.62204 0z" fill-rule="evenodd"/><path stroke="#000000" stroke-width="12.0" stroke-linejoin="round" stroke-linecap="butt" d="m179.06924 780.9316l151.62204 0l0 151.62207l-151.62204 0z" fill-rule="evenodd"/><path fill="#000000" d="m235.84944 870.0826l0 -26.71875l18.3125 0l0 4.515625l-12.921875 0l0 6.328125l11.15625 0l0 4.515625l-11.15625 0l0 11.359375l-5.390625 0zm38.9265 -4.75l0 4.75l-17.953125 0q0.296875 -2.703125 1.75 -5.109375q1.46875 -2.421875 5.765625 -6.40625q3.46875 -3.234375 4.25 -4.375q1.0625 -1.59375 1.0625 -3.140625q0 -1.703125 -0.921875 -2.625q-0.921875 -0.921875 -2.546875 -0.921875q-1.609375 0 -2.5625 0.96875q-0.9375 0.953125 -1.078125 3.203125l-5.109375 -0.515625q0.453125 -4.21875 2.859375 -6.0625q2.40625 -1.84375 6.015625 -1.84375q3.953125 0 6.203125 2.140625q2.265625 2.125 2.265625 5.296875q0 1.796875 -0.640625 3.4375q-0.640625 1.625 -2.046875 3.40625q-0.9375 1.1875 -3.359375 3.421875q-2.421875 2.21875 -3.078125 2.953125q-0.640625 0.71875 -1.03125 1.421875l10.15625 0z" fill-rule="nonzero"/><path fill="#b7b7b7" d="m330.68365 780.9316l151.62204 0l0 151.62207l-151.62204 0z" fill-rule="evenodd"/><path stroke="#000000" stroke-width="12.0" stroke-linejoin="round" stroke-linecap="butt" d="m330.68365 780.9316l151.62204 0l0 151.62207l-151.62204 0z" fill-rule="evenodd"/><path fill="#000000" d="m387.46384 870.0826l0 -26.71875l18.3125 0l0 4.515625l-12.921875 0l0 6.328125l11.15625 0l0 4.515625l-11.15625 0l0 11.359375l-5.390625 0zm21.457764 -7.09375l4.953125 -0.59375q0.234375 1.890625 1.265625 2.890625q1.046875 1.0 2.53125 1.0q1.578125 0 2.65625 -1.203125q1.09375 -1.203125 1.09375 -3.234375q0 -1.9375 -1.046875 -3.0625q-1.03125 -1.140625 -2.53125 -1.140625q-0.984375 0 -2.34375 0.390625l0.5625 -4.171875q2.078125 0.046875 3.171875 -0.90625q1.09375 -0.953125 1.09375 -2.546875q0 -1.34375 -0.8125 -2.140625q-0.796875 -0.8125 -2.125 -0.8125q-1.3125 0 -2.25 0.921875q-0.921875 0.90625 -1.125 2.65625l-4.71875 -0.796875q0.5 -2.421875 1.484375 -3.875q1.0 -1.453125 2.765625 -2.28125q1.78125 -0.828125 4.0 -0.828125q3.765625 0 6.046875 2.40625q1.875 1.96875 1.875 4.453125q0 3.515625 -3.84375 5.609375q2.296875 0.484375 3.671875 2.203125q1.375 1.71875 1.375 4.140625q0 3.515625 -2.578125 6.0q-2.5625 2.46875 -6.390625 2.46875q-3.625 0 -6.015625 -2.078125q-2.390625 -2.09375 -2.765625 -5.46875z" fill-rule="nonzero"/><path fill="#b7b7b7" d="m482.29803 780.9316l151.62207 0l0 151.62207l-151.62207 0z" fill-rule="evenodd"/><path stroke="#000000" stroke-width="12.0" stroke-linejoin="round" stroke-linecap="butt" d="m482.29803 780.9316l151.62207 0l0 151.62207l-151.62207 0z" fill-rule="evenodd"/><path fill="#000000" d="m539.07825 870.0826l0 -26.71875l18.3125 0l0 4.515625l-12.921875 0l0 6.328125l11.15625 0l0 4.515625l-11.15625 0l0 11.359375l-5.390625 0zm31.676514 0l0 -5.375l-10.9375 0l0 -4.484375l11.59375 -16.96875l4.3125 0l0 16.953125l3.3125 0l0 4.5l-3.3125 0l0 5.375l-4.96875 0zm0 -9.875l0 -9.140625l-6.140625 9.140625l6.140625 0z" fill-rule="nonzero"/><path fill="#ffffff" d="m633.9124 780.9316l151.62207 0l0 151.62207l-151.62207 0z" fill-rule="evenodd"/><path stroke="#000000" stroke-width="12.0" stroke-linejoin="round" stroke-linecap="butt" d="m633.9124 780.9316l151.62207 0l0 151.62207l-151.62207 0z" fill-rule="evenodd"/><path fill="#000000" d="m690.6926 870.0826l0 -26.71875l18.3125 0l0 4.515625l-12.921875 0l0 6.328125l11.15625 0l0 4.515625l-11.15625 0l0 11.359375l-5.390625 0zm21.707764 -6.875l5.109375 -0.53125q0.21875 1.734375 1.28125 2.75q1.078125 1.015625 2.484375 1.015625q1.609375 0 2.71875 -1.296875q1.109375 -1.3125 1.109375 -3.9375q0 -2.46875 -1.109375 -3.6875q-1.09375 -1.234375 -2.859375 -1.234375q-2.203125 0 -3.953125 1.953125l-4.15625 -0.609375l2.625 -13.90625l13.546875 0l0 4.796875l-9.671875 0l-0.796875 4.53125q1.71875 -0.84375 3.5 -0.84375q3.40625 0 5.765625 2.484375q2.375 2.46875 2.375 6.421875q0 3.296875 -1.90625 5.890625q-2.609375 3.53125 -7.234375 3.53125q-3.703125 0 -6.046875 -1.984375q-2.328125 -1.984375 -2.78125 -5.34375z" fill-rule="nonzero"/><path fill="#ffffff" d="m785.52686 780.9316l151.62201 0l0 151.62207l-151.62201 0z" fill-rule="evenodd"/><path stroke="#000000" stroke-width="12.0" stroke-linejoin="round" stroke-linecap="butt" d="m785.52686 780.9316l151.62201 0l0 151.62207l-151.62201 0z" fill-rule="evenodd"/><path fill="#000000" d="m842.307 870.0826l0 -26.71875l18.3125 0l0 4.515625l-12.921875 0l0 6.328125l11.15625 0l0 4.515625l-11.15625 0l0 11.359375l-5.390625 0zm38.989014 -20.171875l-4.953125 0.546875q-0.1875 -1.53125 -0.953125 -2.265625q-0.765625 -0.734375 -1.984375 -0.734375q-1.625 0 -2.75 1.46875q-1.109375 1.453125 -1.40625 6.0625q1.90625 -2.265625 4.75 -2.265625q3.21875 0 5.5 2.453125q2.28125 2.4375 2.28125 6.296875q0 4.109375 -2.40625 6.59375q-2.390625 2.46875 -6.171875 2.46875q-4.046875 0 -6.65625 -3.140625q-2.609375 -3.140625 -2.609375 -10.3125q0 -7.34375 2.71875 -10.578125q2.71875 -3.25 7.0625 -3.25q3.046875 0 5.03125 1.703125q2.0 1.703125 2.546875 4.953125zm-11.609375 11.171875q0 2.5 1.140625 3.859375q1.15625 1.34375 2.625 1.34375q1.421875 0 2.375 -1.109375q0.953125 -1.109375 0.953125 -3.640625q0 -2.609375 -1.03125 -3.8125q-1.015625 -1.21875 -2.546875 -1.21875q-1.46875 0 -2.5 1.15625q-1.015625 1.15625 -1.015625 3.421875z" fill-rule="nonzero"/><path fill="#ff0000" d="m319.43195 618.0655l22.48819 0l0 169.63782l-22.48819 0z" fill-rule="evenodd"/><path fill="#ff0000" d="m322.4165 618.0655l0 22.48816l-150.14174 0l0 -22.48816z" fill-rule="evenodd"/><path fill="#0000ff" d="m647.4026 335.10168l-22.48822 0l0 -169.6378l22.48822 0z" fill-rule="evenodd"/><path fill="#0000ff" d="m644.418 335.10168l0 -22.48819l150.14172 0l0 22.48819z" fill-rule="evenodd"/><path fill="#0000ff" d="m53.18154 828.7032l0 0c0 -43.13037 34.964096 -78.09448 78.09449 -78.09448l0 0c20.711945 0 40.575577 8.227783 55.221146 22.873352c14.645554 14.645569 22.873337 34.509216 22.873337 55.22113l0 0c0 43.13037 -34.964096 78.09448 -78.09448 78.09448l0 0c-43.130394 0 -78.09449 -34.96411 -78.09449 -78.09448z" fill-rule="evenodd"/><path fill="#ff0000" d="m755.204 126.68078l0 0c0 -43.130394 34.96405 -78.09449 78.09448 -78.09449l0 0c20.711914 0 40.57556 8.227787 55.22113 22.873344c14.645569 14.645561 22.873352 34.5092 22.873352 55.221146l0 0c0 43.130394 -34.96411 78.09449 -78.09448 78.09449l0 0c-43.130432 0 -78.09448 -34.964096 -78.09448 -78.09449z" fill-rule="evenodd"/><path fill="#000000" fill-opacity="0.0" d="m53.388336 22.857496l883.68506 883.68506l-25.921265 25.921265l-883.685 -883.68506z" fill-rule="evenodd"/><path stroke="#b7b7b7" stroke-width="8.0" stroke-linejoin="round" stroke-linecap="butt" d="m53.388336 22.857496l883.68506 883.68506l-25.921265 25.921265l-883.685 -883.68506z" fill-rule="evenodd"/><path fill="#000000" fill-opacity="0.0" d="m633.9124 629.3172l151.62207 0l0 151.62201l-151.62207 0z" fill-rule="evenodd"/><path fill="#000000" d="m689.61334 718.4682l0 -26.71875l19.8125 0l0 4.515625l-14.421875 0l0 5.921875l13.421875 0l0 4.5l-13.421875 0l0 7.28125l14.921875 0l0 4.5l-20.3125 0zm23.835083 -6.875l5.109375 -0.53125q0.21875 1.734375 1.28125 2.75q1.078125 1.015625 2.484375 1.015625q1.609375 0 2.71875 -1.296875q1.109375 -1.3125 1.109375 -3.9375q0 -2.46875 -1.109375 -3.6875q-1.09375 -1.234375 -2.859375 -1.234375q-2.203125 0 -3.953125 1.953125l-4.15625 -0.609375l2.625 -13.90625l13.546875 0l0 4.796875l-9.671875 0l-0.796875 4.53125q1.71875 -0.84375 3.5 -0.84375q3.40625 0 5.765625 2.484375q2.375 2.46875 2.375 6.421875q0 3.296875 -1.90625 5.890625q-2.609375 3.53125 -7.234375 3.53125q-3.703125 0 -6.046875 -1.984375q-2.328125 -1.984375 -2.78125 -5.34375z" fill-rule="nonzero"/><path fill="#000000" fill-opacity="0.0" d="m785.52686 780.9316l151.62201 0l0 151.62207l-151.62201 0z" fill-rule="evenodd"/><path fill="#000000" d="m842.307 870.0826l0 -26.71875l18.3125 0l0 4.515625l-12.921875 0l0 6.328125l11.15625 0l0 4.515625l-11.15625 0l0 11.359375l-5.390625 0zm38.989014 -20.171875l-4.953125 0.546875q-0.1875 -1.53125 -0.953125 -2.265625q-0.765625 -0.734375 -1.984375 -0.734375q-1.625 0 -2.75 1.46875q-1.109375 1.453125 -1.40625 6.0625q1.90625 -2.265625 4.75 -2.265625q3.21875 0 5.5 2.453125q2.28125 2.4375 2.28125 6.296875q0 4.109375 -2.40625 6.59375q-2.390625 2.46875 -6.171875 2.46875q-4.046875 0 -6.65625 -3.140625q-2.609375 -3.140625 -2.609375 -10.3125q0 -7.34375 2.71875 -10.578125q2.71875 -3.25 7.0625 -3.25q3.046875 0 5.03125 1.703125q2.0 1.703125 2.546875 4.953125zm-11.609375 11.171875q0 2.5 1.140625 3.859375q1.15625 1.34375 2.625 1.34375q1.421875 0 2.375 -1.109375q0.953125 -1.109375 0.953125 -3.640625q0 -2.609375 -1.03125 -3.8125q-1.015625 -1.21875 -2.546875 -1.21875q-1.46875 0 -2.5 1.15625q-1.015625 1.15625 -1.015625 3.421875z" fill-rule="nonzero"/><path fill="#000000" fill-opacity="0.0" d="m482.29803 477.7028l151.62207 0l0 151.62204l-151.62207 0z" fill-rule="evenodd"/><path fill="#000000" d="m536.95355 540.1351l9.859375 0q3.328125 0 5.078125 0.515625q2.359375 0.6875 4.03125 2.453125q1.671875 1.765625 2.546875 4.328125q0.875 2.5625 0.875 6.3125q0 3.296875 -0.8125 5.6875q-1.0 2.921875 -2.859375 4.71875q-1.40625 1.375 -3.796875 2.140625q-1.78125 0.5625 -4.78125 0.5625l-10.140625 0l0 -26.71875zm5.390625 4.515625l0 17.703125l4.03125 0q2.25 0 3.265625 -0.25q1.3125 -0.328125 2.171875 -1.109375q0.859375 -0.796875 1.40625 -2.59375q0.546875 -1.796875 0.546875 -4.890625q0 -3.09375 -0.546875 -4.75q-0.546875 -1.65625 -1.53125 -2.578125q-0.984375 -0.9375 -2.484375 -1.265625q-1.140625 -0.265625 -4.4375 -0.265625l-2.421875 0zm30.488403 22.203125l0 -5.375l-10.9375 0l0 -4.484375l11.59375 -16.96875l4.3125 0l0 16.953125l3.3125 0l0 4.5l-3.3125 0l0 5.375l-4.96875 0zm0 -9.875l0 -9.140625l-6.140625 9.140625l6.140625 0z" fill-rule="nonzero"/><path fill="#000000" fill-opacity="0.0" d="m330.68365 326.08838l151.62204 0l0 151.62207l-151.62204 0z" fill-rule="evenodd"/><path fill="#000000" d="m402.44852 405.4113l5.234375 1.65625q-1.203125 4.375 -4.0 6.5q-2.796875 2.125 -7.109375 2.125q-5.3125 0 -8.75 -3.625q-3.421875 -3.640625 -3.421875 -9.953125q0 -6.671875 3.4375 -10.359375q3.453125 -3.6875 9.0625 -3.6875q4.90625 0 7.96875 2.890625q1.828125 1.71875 2.734375 4.921875l-5.34375 1.28125q-0.46875 -2.078125 -1.96875 -3.28125q-1.5 -1.203125 -3.65625 -1.203125q-2.96875 0 -4.828125 2.140625q-1.84375 2.125 -1.84375 6.890625q0 5.078125 1.8125 7.234375q1.828125 2.140625 4.75 2.140625q2.15625 0 3.703125 -1.359375q1.546875 -1.375 2.21875 -4.3125zm8.550934 2.734375l4.953125 -0.59375q0.234375 1.890625 1.265625 2.890625q1.046875 1.0 2.53125 1.0q1.578125 0 2.65625 -1.203125q1.09375 -1.203125 1.09375 -3.234375q0 -1.9375 -1.046875 -3.0625q-1.03125 -1.140625 -2.53125 -1.140625q-0.984375 0 -2.34375 0.390625l0.5625 -4.171875q2.078125 0.046875 3.171875 -0.90625q1.09375 -0.953125 1.09375 -2.546875q0 -1.34375 -0.8125 -2.140625q-0.796875 -0.8125 -2.125 -0.8125q-1.3125 0 -2.25 0.921875q-0.921875 0.90625 -1.125 2.65625l-4.71875 -0.796875q0.5 -2.421875 1.484375 -3.875q1.0 -1.453125 2.765625 -2.28125q1.78125 -0.828125 4.0 -0.828125q3.765625 0 6.046875 2.40625q1.875 1.96875 1.875 4.453125q0 3.515625 -3.84375 5.609375q2.296875 0.484375 3.671875 2.203125q1.375 1.71875 1.375 4.140625q0 3.515625 -2.578125 6.0q-2.5625 2.46875 -6.390625 2.46875q-3.625 0 -6.015625 -2.078125q-2.390625 -2.09375 -2.765625 -5.46875z" fill-rule="nonzero"/><path fill="#000000" fill-opacity="0.0" d="m179.06924 174.47398l151.62204 0l0 151.62206l-151.62204 0z" fill-rule="evenodd"/><path fill="#000000" d="m233.75598 236.90625l10.6875 0q3.171875 0 4.71875 0.265625q1.5625 0.265625 2.78125 1.109375q1.234375 0.828125 2.046875 2.234375q0.828125 1.390625 0.828125 3.109375q0 1.875 -1.015625 3.453125q-1.0 1.5625 -2.734375 2.34375q2.4375 0.71875 3.75 2.4375q1.3125 1.703125 1.3125 4.015625q0 1.828125 -0.84375 3.546875q-0.84375 1.71875 -2.3125 2.75q-1.46875 1.03125 -3.609375 1.265625q-1.359375 0.15625 -6.515625 0.1875l-9.09375 0l0 -26.71875zm5.390625 4.453125l0 6.171875l3.546875 0q3.140625 0 3.90625 -0.09375q1.390625 -0.15625 2.1875 -0.953125q0.796875 -0.796875 0.796875 -2.09375q0 -1.234375 -0.6875 -2.0q-0.6875 -0.78125 -2.03125 -0.953125q-0.8125 -0.078125 -4.609375 -0.078125l-3.109375 0zm0 10.625l0 7.140625l5.0 0q2.921875 0 3.703125 -0.171875q1.203125 -0.21875 1.953125 -1.0625q0.75 -0.84375 0.75 -2.265625q0 -1.203125 -0.578125 -2.03125q-0.578125 -0.84375 -1.6875 -1.21875q-1.09375 -0.390625 -4.78125 -0.390625l-4.359375 0zm37.707184 6.890625l0 4.75l-17.953125 0q0.296875 -2.703125 1.75 -5.109375q1.46875 -2.421875 5.765625 -6.40625q3.46875 -3.234375 4.25 -4.375q1.0625 -1.59375 1.0625 -3.140625q0 -1.703125 -0.921875 -2.625q-0.921875 -0.921875 -2.546875 -0.921875q-1.609375 0 -2.5625 0.96875q-0.9375 0.953125 -1.078125 3.203125l-5.109375 -0.515625q0.453125 -4.21875 2.859375 -6.0625q2.40625 -1.84375 6.015625 -1.84375q3.953125 0 6.203125 2.140625q2.265625 2.125 2.265625 5.296875q0 1.796875 -0.640625 3.4375q-0.640625 1.625 -2.046875 3.40625q-0.9375 1.1875 -3.359375 3.421875q-2.421875 2.21875 -3.078125 2.953125q-0.640625 0.71875 -1.03125 1.421875l10.15625 0z" fill-rule="nonzero"/><path fill="#000000" fill-opacity="0.0" d="m27.454847 22.859594l151.62204 0l0 151.62206l-151.62204 0z" fill-rule="evenodd"/><path fill="#000000" d="m106.21971 112.01061l-5.875 0l-2.328125 -6.0625l-10.6875 0l-2.203125 6.0625l-5.71875 0l10.40625 -26.71875l5.703125 0l10.703125 26.71875zm-9.9375 -10.578125l-3.671875 -9.90625l-3.609375 9.90625l7.28125 0zm24.769684 10.578125l-5.125 0l0 -19.296875q-2.796875 2.625 -6.609375 3.875l0 -4.640625q2.0 -0.65625 4.34375 -2.484375q2.359375 -1.84375 3.234375 -4.28125l4.15625 0l0 26.828125z" fill-rule="nonzero"/><path fill="#000000" fill-opacity="0.0" d="m27.454847 22.859594l909.7008 0l0 909.70074l-909.7008 0z" fill-rule="evenodd"/><path stroke="#000000" stroke-width="24.0" stroke-linejoin="round" stroke-linecap="butt" d="m27.454847 22.859594l909.7008 0l0 909.70074l-909.7008 0z" fill-rule="evenodd"/><path fill="#0000ff" d="m26.588604 263.82803l0 0c-9.54664 0 -18.360182 -8.60376 -23.090303 -22.540741c-4.730122 -13.936966 -4.6503596 -31.06665 0.20896697 -44.877487c4.8593264 -13.810852 13.751907 -22.181732 23.297379 -21.930618l-0.41604233 44.67169z" fill-rule="evenodd"/><path fill="#ff0000" d="m26.610683 174.47597l0 0c9.546642 0 18.36018 8.603775 23.090302 22.540741c4.7301254 13.936966 4.65036 31.066666 -0.2089653 44.877502c-4.8593254 13.810837 -13.751907 22.181717 -23.297379 21.930618l0.41604233 -44.671707z" fill-rule="evenodd"/><path fill="#0000ff" d="m785.5247 933.4121l0 0c0 9.546631 -8.60376 18.360168 -22.54071 23.090271c-13.937012 4.7301636 -31.06665 4.6503906 -44.877502 -0.20892334c-13.810852 -4.859375 -22.181763 -13.751953 -21.930603 -23.297424l44.67169 0.41607666z" fill-rule="evenodd"/><path fill="#ff0000" d="m696.17267 933.39l0 0c0 -9.546631 8.60376 -18.360168 22.54071 -23.090271c13.937012 -4.7301636 31.066711 -4.6503906 44.877502 0.20892334c13.810852 4.859375 22.181763 13.751953 21.930664 23.297424l-44.67169 -0.41607666z" fill-rule="evenodd"/><path fill="#0000ff" d="m933.38995 780.92865l0 0c-9.546631 0 -18.360168 -8.60376 -23.090332 -22.540771c-4.7301025 -13.936951 -4.6503296 -31.06665 0.20898438 -44.877502c4.859314 -13.810791 13.751892 -22.181702 23.297363 -21.930603l-0.41601562 44.67169z" fill-rule="evenodd"/><path fill="#ff0000" d="m933.412 691.57654l0 0c9.546692 0 18.36023 8.603821 23.090332 22.540771c4.7301025 13.936951 4.6503296 31.06665 -0.20898438 44.877502c-4.859314 13.810852 -13.751892 22.181702 -23.297363 21.930603l0.41601562 -44.67169z" fill-rule="evenodd"/><path fill="#0000ff" d="m268.42413 26.61077l0 0c0 9.54664 -8.60376 18.360182 -22.540741 23.090303c-13.936966 4.7301216 -31.06665 4.65036 -44.877502 -0.20896912c-13.810837 -4.8593254 -22.181717 -13.751907 -21.930603 -23.297377l44.67169 0.41604233z" fill-rule="evenodd"/><path fill="#ff0000" d="m179.07207 26.58869l0 0c0 -9.54664 8.603775 -18.360182 22.540741 -23.090303c13.936966 -4.730122 31.06665 -4.6503596 44.877502 0.20896697c13.810837 4.8593264 22.181717 13.751907 21.930618 23.297379l-44.671707 -0.41604233z" fill-rule="evenodd"/></g></svg>